<svg xmlns="http://www.w3.org/2000/svg" width="230.279" height="214.495" viewBox="0 0 230.279 214.495">
  <g id="backpacker-running" transform="translate(0 -1.974)">
    <g id="Group_1" data-name="Group 1" transform="translate(0 1.974)">
      <path id="Path_1" data-name="Path 1" d="M206.525,123.178c-10.828,7.314-23.638,15.38-37.308,12.722-6.971-1.359-12.407-5.8-16.8-11.323a33.338,33.338,0,0,0-2.694-20.848c-1.607-3.5-3.365-6.9-5.192-10.26,1.727-.164,3.445-.384,5.184-.687a8.556,8.556,0,0,0,2-.616,27.366,27.366,0,0,0,26.748-.44C191.2,84.256,196.244,66.7,188.3,53.907q-9.731-15.7-19.5-31.408C160.879,9.716,144.236,4.9,130.99,12.662a27.272,27.272,0,0,0-9.893,10.18,43,43,0,0,0-18.282,8.845A34.44,34.44,0,0,0,97.879,37a25.5,25.5,0,0,0-20.632,2.734,21.729,21.729,0,0,0-1.871,1.247,11.527,11.527,0,0,0-3.641-.164c-20.74,2.47-40.973,6.443-60.646,13.586-19.537,7.087-11.112,38.5,8.633,31.332A234.324,234.324,0,0,1,65.4,74.167a20.173,20.173,0,0,0,2,3.389c11.028,14.717,21.9,29.506,30.477,45.737-19.957,12.85-39.29,26.616-58.18,41.065-16.4,12.547-.252,40.793,16.4,28.063,21.983-16.815,44.554-32.711,68.021-47.292a31.446,31.446,0,0,0,3.581-.04c8.542,10.236,19.221,18.222,32.867,22.155,21.7,6.251,44.722-4.065,62.353-15.984C240.171,139.574,223.935,111.4,206.525,123.178Zm-71.59-45.741C128.7,67.9,121.929,58.719,115.066,49.574a40.777,40.777,0,0,0-3.026-3.565A22.887,22.887,0,0,1,117.8,41.56a25.165,25.165,0,0,0,3.365,8.905q8.442,13.6,16.887,27.2C136.993,77.641,135.966,77.553,134.935,77.437Z" transform="translate(0 18.85)" fill="#414141"/>
      <circle id="Ellipse_1" data-name="Ellipse 1" cx="26.54" cy="26.54" r="26.54" transform="translate(38.156)" fill="#414141"/>
    </g>
  </g>
</svg>
