<svg xmlns="http://www.w3.org/2000/svg" width="918" height="827.944" viewBox="0 0 918 827.944">
  <g id="Group_3" data-name="Group 3" transform="translate(328 135.944)">
    <g id="wrong-sign" transform="translate(-90.066 -57.066)">
      <g id="Group_2" data-name="Group 2" transform="translate(-10.878 152.872) rotate(-45)">
        <path id="Path_5" data-name="Path 5" d="M0,0V327.743H327.743V0ZM319.284,319.284H8.46V8.46H319.285S319.284,319.284,319.284,319.284Z" fill="#eaeaea"/>
      </g>
    </g>
    <g id="wrong-sign-2" data-name="wrong-sign" transform="translate(-90.066 94.934)">
      <g id="Group_2-2" data-name="Group 2" transform="translate(-10.878 152.872) rotate(-45)">
        <path id="Path_5-2" data-name="Path 5" d="M0,0V327.743H327.743V0ZM319.284,319.284H8.46V8.46H319.285S319.284,319.284,319.284,319.284Z" fill="#eaeaea"/>
      </g>
    </g>
    <g id="wrong-sign-3" data-name="wrong-sign" transform="translate(-100.909 183.85) rotate(-46)">
      <g id="Group_2-3" data-name="Group 2">
        <path id="Path_5-3" data-name="Path 5" d="M0,0V327.743H327.743V0ZM319.284,319.284H8.46V8.46H319.285S319.284,319.284,319.284,319.284Z" fill="#eaeaea"/>
      </g>
    </g>
    <text id="OUTBREAK" transform="translate(-328 480)" fill="#776969" font-size="187" font-family="CourierNewPSMT, Courier New"><tspan x="0" y="156">OUTBREAK</tspan></text>
  </g>
</svg>
